<?xml version="1.0" standalone="no"?>
<!DOCTYPE svg PUBLIC "-//W3C//DTD SVG 20010904//EN"
 "http://www.w3.org/TR/2001/REC-SVG-20010904/DTD/svg10.dtd">
<svg version="1.0" xmlns="http://www.w3.org/2000/svg"
 width="1000.000000pt" height="1000.000000pt" viewBox="0 0 1000.000000 1000.000000"
 preserveAspectRatio="xMidYMid meet">
<metadata>
Created by potrace 1.11, written by Peter Selinger 2001-2013
</metadata>
<g transform="translate(0.000000,1000.000000) scale(0.100000,-0.100000)"
fill="#000000" stroke="none">
<path d="M4875 9610 c-148 -13 -225 -44 -225 -91 0 -12 -14 -28 -35 -40 -44
-26 -55 -46 -55 -101 0 -49 12 -70 53 -96 l29 -17 -2 -234 c-1 -210 -3 -237
-19 -260 -10 -14 -28 -45 -40 -68 -24 -48 -14 -45 -221 -63 -348 -30 -714
-119 -1080 -262 -168 -66 -538 -248 -565 -278 -16 -18 -15 -24 19 -116 l36
-97 0 -428 0 -428 -107 -3 -108 -3 -6 -70 c-4 -38 -7 -441 -8 -895 l-1 -825
35 -52 c19 -29 35 -64 35 -78 0 -22 -4 -25 -35 -25 -29 0 -37 -5 -45 -26 -28
-73 -53 -421 -66 -945 l-7 -256 35 -5 35 -4 6 86 c2 47 11 99 18 115 27 61 82
125 142 165 69 46 75 56 76 117 1 57 27 74 120 76 97 3 122 -17 136 -102 7
-46 15 -66 30 -74 53 -30 91 -68 135 -134 47 -70 65 -123 72 -213 l3 -35 135
-6 c74 -4 180 -14 235 -23 123 -20 300 -47 340 -51 17 -2 51 -8 77 -13 33 -7
49 -6 52 2 3 6 5 -100 5 -236 0 -137 -4 -248 -8 -248 -5 0 -7 -18 -5 -39 1
-22 0 -49 -3 -60 -5 -21 -10 -21 -394 -21 -236 0 -389 4 -389 9 0 6 -9 9 -20
8 -29 -2 -25 -9 21 -37 22 -13 46 -34 53 -45 9 -14 -20 1 -76 38 -50 33 -111
66 -136 73 -74 23 -167 18 -247 -13 -47 -18 -83 -26 -110 -23 -22 2 -105 3
-185 2 -620 -9 -784 -12 -791 -19 -3 -5 -8 -222 -10 -483 l-4 -475 508 -3 507
-2 0 -35 c0 -24 -6 -37 -20 -45 -17 -9 -20 -21 -20 -85 0 -59 3 -76 17 -83 13
-8 18 -34 25 -128 4 -66 13 -129 19 -141 8 -16 10 -59 6 -139 -10 -189 23
-896 44 -935 8 -17 26 -19 182 -21 l172 -3 45 -85 c33 -63 50 -85 65 -85 22 0
29 19 43 105 l8 55 19 -38 c13 -26 25 -37 41 -37 24 0 34 23 34 82 0 48 14 56
30 17 19 -45 52 -37 62 16 4 22 13 240 20 483 l12 444 46 -7 c25 -4 326 -10
670 -14 l625 -6 3 -40 c2 -22 8 -44 13 -49 5 -6 9 -82 9 -170 0 -144 -2 -164
-20 -191 -29 -44 -29 -171 1 -209 29 -37 89 -37 118 0 30 38 30 173 1 215 -20
27 -21 39 -16 191 2 90 7 184 11 210 l7 48 626 3 c345 3 645 8 668 12 l41 7 6
-93 c4 -50 7 -167 7 -258 0 -178 16 -548 26 -594 8 -38 39 -36 61 6 l17 32 11
-65 c9 -60 12 -65 35 -65 19 0 29 8 39 32 18 41 31 42 31 4 0 -58 13 -120 26
-125 26 -10 41 5 84 89 l43 85 176 2 175 3 7 29 c12 43 30 388 40 751 11 416
21 564 39 575 15 10 15 161 -1 171 -5 3 -12 22 -16 42 l-6 37 509 2 509 3 3
450 c1 248 0 465 -3 483 l-6 32 -499 0 c-275 0 -500 -2 -500 -5 0 -3 17 -21
38 -40 l37 -36 -47 31 c-26 17 -72 42 -104 56 -56 25 -72 44 -20 24 37 -14 46
-13 46 4 0 8 -10 16 -22 18 l-23 3 -3 323 -2 322 225 0 225 0 -1 53 c-1 38 -3
45 -8 27 -9 -32 -20 75 -22 215 -1 68 -4 90 -9 70 -7 -26 -8 -23 -11 25 -1 30
-3 63 -2 72 0 10 -3 15 -6 12 -3 -3 -6 -34 -6 -67 0 -50 -3 -61 -15 -58 -42
10 -95 -5 -61 -17 10 -3 7 -8 -10 -17 -23 -13 -86 -10 -102 5 -14 13 -49 -1
-43 -17 4 -11 1 -13 -14 -8 -11 3 -33 7 -50 7 -19 1 -30 6 -30 16 0 11 -7 12
-27 7 -48 -13 -58 -11 -61 12 -3 17 -11 23 -38 25 -19 2 -34 7 -34 13 0 5 18
8 39 6 21 -1 42 2 46 8 3 7 0 8 -10 5 -11 -5 -14 -2 -9 10 7 17 -11 22 -21 6
-3 -5 -11 -10 -17 -10 -7 0 -7 4 0 13 8 10 6 13 -10 14 -12 1 -28 10 -37 19
-9 9 -11 14 -5 10 7 -3 14 1 18 9 7 18 -3 45 -16 45 -5 0 -6 5 -2 11 4 7 1 10
-7 7 -19 -7 -46 8 -60 33 -6 12 -7 19 -1 15 14 -8 24 24 12 39 -5 6 -7 15 -3
18 3 4 0 13 -6 21 -7 8 -10 20 -6 26 3 5 1 10 -4 10 -6 0 -11 -8 -12 -17 0
-13 -3 -11 -10 7 -8 19 -6 27 7 37 10 7 14 13 10 13 -5 0 -3 7 4 15 7 8 8 15
3 15 -12 0 -5 48 8 56 18 11 8 24 -17 24 -23 0 -25 2 -13 16 10 13 10 17 0 24
-8 4 -11 12 -7 18 3 6 2 13 -4 17 -19 12 2 27 27 20 20 -5 24 -3 20 8 -3 9 1
14 11 13 9 0 18 7 20 17 2 10 -3 17 -12 17 -19 0 -22 20 -3 20 7 1 5 6 -5 14
-10 7 -18 22 -18 33 0 10 -5 24 -12 31 -9 9 -9 12 0 12 7 0 12 -5 12 -12 0 -6
7 -4 18 5 10 10 26 17 36 17 9 0 15 4 11 10 -4 6 -15 5 -30 -2 -29 -13 -57 -4
-49 16 4 9 20 14 48 14 49 0 126 21 126 34 0 4 10 8 23 8 18 0 19 2 7 10 -11
7 -12 10 -2 10 17 0 43 -26 35 -34 -4 -3 1 -6 10 -6 20 0 23 26 5 33 -10 4
-10 6 0 6 7 1 17 -10 22 -24 9 -25 28 -30 89 -25 14 1 21 -2 17 -9 -4 -6 -16
-11 -26 -11 -28 0 -35 -20 -8 -21 18 0 20 -2 6 -7 -21 -8 -12 -23 23 -39 18
-8 30 -8 37 -1 6 6 17 2 30 -13 23 -24 21 -42 -3 -32 -8 3 -15 0 -15 -7 0 -7
8 -10 20 -7 25 7 36 -9 14 -21 -15 -8 -15 -10 0 -15 9 -4 16 -13 16 -22 0 -8
7 -15 15 -15 8 0 15 -4 15 -10 0 -5 7 -10 15 -10 14 0 19 -11 16 -37 -1 -7 6
-13 15 -13 16 0 16 -1 1 -18 -23 -25 -21 -32 8 -30 19 2 25 8 26 28 1 20 3 18
11 -12 7 -25 6 -42 -1 -55 -9 -15 -10 -13 -5 10 5 22 3 26 -10 21 -9 -4 -15
-11 -13 -18 4 -13 -41 -38 -54 -30 -5 3 -9 -2 -9 -10 0 -9 7 -16 15 -16 8 0
15 3 15 8 0 4 14 7 30 7 17 0 30 -3 30 -7 0 -5 3 -8 8 -8 17 0 20 294 3 390
-19 101 -18 100 -61 100 -39 0 -39 0 -33 33 3 17 20 52 37 76 l31 43 -3 887
c-3 798 -5 887 -20 899 -10 8 -51 12 -114 12 l-98 0 0 423 0 422 36 94 c19 52
34 103 32 115 -2 16 -50 44 -213 127 -462 233 -904 369 -1380 423 -157 18
-247 22 -265 11 -9 -5 -11 -4 -6 3 4 6 -11 45 -34 86 l-40 75 0 230 0 231 35
14 c74 31 75 160 1 191 -19 8 -33 24 -40 46 -13 40 -57 65 -138 78 -85 14
-295 20 -393 11z m295 -30 c11 -7 6 -10 -22 -10 -20 0 -40 5 -43 10 -8 13 45
13 65 0z m45 -90 c4 -6 -13 -10 -44 -10 -27 0 -53 5 -56 10 -4 6 13 10 44 10
27 0 53 -4 56 -10z m231 -766 c11 -27 12 -39 4 -44 -6 -4 -10 -11 -9 -16 1 -5
1 -16 0 -24 -1 -13 -2 -13 -11 0 -9 14 -12 120 -3 120 2 0 11 -16 19 -36z
m-1764 -614 c84 -26 137 -61 206 -135 66 -70 96 -120 107 -176 6 -34 4 -37
-48 -77 l-55 -41 -11 46 c-36 143 -143 244 -288 274 -153 31 -314 -48 -390
-192 -25 -49 -27 -64 -28 -159 0 -95 3 -110 28 -162 30 -60 109 -138 161 -158
38 -14 45 -6 7 9 -16 7 -39 23 -52 37 -21 22 -21 27 -9 63 13 39 84 131 101
131 6 0 9 -52 8 -131 -1 -137 2 -148 44 -149 15 0 17 14 17 159 l0 159 33 11
c17 5 46 12 62 14 31 5 145 -10 154 -19 14 -13 -2 -91 -23 -114 -13 -14 -50
-61 -82 -105 -32 -44 -62 -81 -66 -83 -5 -2 -8 -13 -8 -23 0 -11 -16 -44 -35
-74 -32 -51 -36 -54 -67 -49 -312 55 -493 373 -377 665 43 112 126 198 244
254 118 57 238 65 367 25z m3005 -2 c82 -25 177 -90 235 -162 85 -105 125
-269 99 -398 -47 -222 -267 -398 -482 -386 l-53 3 -34 60 c-19 33 -43 76 -54
95 -11 19 -34 53 -51 74 -28 35 -31 47 -35 126 l-4 87 33 14 c41 17 172 18
212 1 l28 -12 -3 -160 -3 -161 25 6 c49 12 146 63 187 99 25 22 56 64 75 104
29 59 33 76 33 147 0 71 -4 89 -33 147 -116 235 -403 287 -585 106 -65 -65
-89 -123 -95 -225 -2 -46 -7 -83 -10 -83 -4 0 -32 26 -64 57 -42 42 -58 65
-58 85 0 50 50 163 98 221 134 162 332 219 539 155z m-1558 -160 c10 -16 10
-23 2 -26 -6 -2 -11 -10 -11 -17 0 -7 -5 -15 -12 -17 -6 -2 -1 -14 13 -29 14
-13 28 -31 31 -39 3 -8 23 -25 45 -36 l40 -22 -10 29 c-6 15 -20 32 -31 38
-30 14 3 15 41 0 18 -7 29 -7 31 0 2 5 14 0 28 -12 13 -11 23 -26 20 -32 -2
-7 0 -18 5 -26 7 -11 9 -9 9 8 0 48 29 38 65 -24 11 -18 23 -33 28 -33 12 0
37 -27 37 -40 0 -14 -60 -40 -77 -33 -7 3 -13 0 -13 -6 0 -6 9 -11 20 -11 11
0 20 -4 20 -9 0 -4 12 -6 28 -3 22 4 25 3 16 -9 -7 -8 -10 -38 -8 -72 3 -49 2
-56 -10 -45 -8 7 -12 16 -10 20 2 4 -1 10 -7 14 -8 4 -9 3 -5 -4 4 -6 -3 -21
-14 -32 -23 -23 -18 -41 24 -78 27 -22 27 -42 1 -42 -7 0 -15 -6 -18 -12 -3
-10 -7 -10 -17 -1 -14 13 -63 -3 -54 -18 3 -5 0 -9 -5 -9 -6 0 -11 -7 -11 -15
0 -8 7 -15 15 -15 8 0 15 -4 15 -9 0 -5 2 -16 5 -23 4 -9 -2 -14 -14 -14 -11
0 -17 4 -14 9 3 5 -5 7 -18 6 -13 -2 -30 0 -38 5 -9 6 -21 -1 -37 -20 -13 -16
-23 -23 -24 -16 0 6 -11 12 -24 12 -24 0 -24 -2 -20 -57 l4 -58 -15 33 c-12
26 -21 32 -45 32 -30 0 -30 -1 -24 -42 3 -24 7 -52 9 -63 3 -14 -5 -27 -25
-40 -26 -18 -28 -23 -23 -62 4 -33 2 -43 -8 -43 -11 0 -11 -2 1 -10 13 -9 13
-11 0 -19 -18 -12 -30 -5 -30 19 0 10 -4 22 -10 25 -5 3 -10 -1 -10 -9 0 -9
-4 -16 -10 -16 -5 0 -10 5 -10 11 0 7 -11 9 -30 5 -28 -5 -30 -4 -25 17 5 18
1 26 -19 35 -13 6 -27 20 -31 31 -4 12 -12 18 -21 14 -7 -3 -14 -1 -14 4 0 18
-35 49 -77 67 -24 11 -43 23 -43 28 0 4 -15 8 -32 9 -44 1 -90 29 -95 58 -2
12 -10 29 -17 37 -13 12 -16 12 -25 -3 -5 -10 -13 -15 -17 -11 -4 4 -1 15 6
23 10 12 10 21 1 41 -16 36 -14 44 12 44 12 0 17 4 11 8 -6 4 -14 16 -18 26
-6 18 -7 18 -27 -2 -22 -25 -39 -28 -39 -9 -1 7 -6 5 -14 -5 -16 -21 -32 -23
-43 -4 -4 7 -23 21 -42 31 -31 16 -35 16 -43 1 -11 -20 -38 -21 -38 -2 0 8
-13 20 -29 27 -17 8 -27 18 -24 26 3 7 0 13 -6 13 -14 0 -14 -14 -1 -40 6 -11
15 -29 20 -40 15 -29 13 -32 -19 -25 -17 4 -32 2 -36 -5 -4 -6 -15 -8 -25 -5
-10 3 -25 -1 -34 -10 -10 -10 -24 -14 -36 -10 -18 6 -20 2 -20 -35 0 -45 -34
-102 -56 -93 -15 6 -13 -19 5 -40 20 -24 -2 -56 -34 -50 -28 6 -33 -8 -10 -27
25 -21 18 -58 -14 -75 -19 -9 -32 -11 -36 -5 -9 15 -35 12 -35 -5 0 -7 7 -18
17 -23 19 -11 12 -39 -13 -49 -9 -3 -29 -2 -43 3 -33 12 -61 7 -61 -12 0 -10
7 -13 25 -8 19 5 25 2 25 -9 0 -9 10 -19 23 -23 20 -7 20 -8 -10 -16 -18 -5
-33 -14 -33 -20 0 -6 -8 -4 -18 5 -10 10 -30 18 -45 19 -14 1 -25 5 -25 8 2
27 -4 50 -12 45 -5 -3 -10 1 -10 9 0 9 -4 16 -9 16 -16 0 -19 51 -4 66 8 8 30
14 49 14 19 0 34 5 34 10 0 6 7 10 15 10 8 0 15 7 15 15 0 8 -7 15 -15 15 -8
0 -15 -4 -15 -10 0 -23 -19 -8 -22 18 -2 15 -7 27 -13 27 -35 1 -49 49 -16 58
14 3 18 11 14 26 -6 22 -3 24 19 16 10 -4 13 -16 10 -36 -4 -30 -4 -31 31 -26
65 9 78 32 22 43 -19 3 -32 10 -29 15 3 5 10 7 15 4 5 -4 9 -1 9 4 0 6 9 11
20 11 11 0 20 7 20 15 0 8 -9 15 -20 15 -11 0 -20 -6 -20 -14 0 -9 -8 -12 -25
-8 -28 5 -35 36 -10 46 8 3 15 15 15 26 0 11 6 20 13 20 17 -1 47 -25 47 -39
0 -6 5 -11 10 -11 6 0 10 7 10 15 0 8 -4 15 -10 15 -5 0 -10 9 -10 19 0 11 -4
23 -10 26 -11 7 -14 28 -2 22 17 -11 52 13 52 36 0 15 9 29 25 37 20 11 25 21
25 53 0 30 3 38 15 34 20 -8 62 16 57 32 -3 10 1 12 17 8 17 -4 25 1 33 19 8
18 14 21 20 12 5 -9 8 -7 8 7 0 11 6 30 14 41 8 11 16 31 18 44 2 18 9 25 25
24 15 0 24 7 28 23 5 23 32 31 50 14 6 -4 31 -11 58 -15 43 -5 47 -4 47 15 0
14 5 19 18 17 10 -2 17 -12 16 -24 -2 -33 34 -18 41 17 6 27 25 41 25 19 0 -5
11 -10 25 -10 15 0 36 -13 56 -35 37 -40 49 -44 49 -15 0 11 -4 20 -10 20 -5
0 -19 9 -30 20 -11 11 -20 25 -20 30 0 6 -4 10 -9 10 -6 0 -9 15 -8 34 2 32 3
33 24 19 28 -19 149 -24 146 -6 -5 23 29 22 51 -2 13 -14 30 -25 39 -25 8 0
17 -6 20 -12 2 -7 8 -10 12 -6 4 4 4 15 0 25 -22 51 -6 82 24 46 9 -10 28 -27
44 -36 26 -17 27 -17 27 3 0 23 17 61 32 71 5 3 3 9 -6 12 -11 5 -16 1 -16
-13 0 -23 -9 -25 -45 -8 -29 13 -32 30 -10 48 12 10 19 10 27 2 18 -18 28 -14
28 11 1 20 2 21 14 5 7 -10 21 -18 30 -18 9 0 16 -6 16 -13 0 -10 33 -47 43
-47 1 0 1 20 -1 45 -4 40 -2 45 16 45 11 0 27 -7 36 -15 18 -18 32 -19 42 -3
4 7 3 8 -4 4 -8 -4 -10 -2 -6 8 7 19 26 12 43 -16z m-372 -24 c11 -10 12 -19
5 -26 -15 -15 -52 0 -52 23 0 23 25 25 47 3z m533 6 c0 -5 -4 -10 -10 -10 -5
0 -10 5 -10 10 0 6 5 10 10 10 6 0 10 -4 10 -10z m-663 -25 c3 -9 3 -19 -1
-22 -8 -9 -37 18 -30 28 8 14 24 11 31 -6z m547 -17 c3 -17 3 -34 0 -37 -10
-11 -32 29 -27 49 8 30 20 24 27 -12z m57 9 c-13 -13 -26 -3 -16 12 3 6 11 8
17 5 6 -4 6 -10 -1 -17z m112 -4 c4 -3 -2 -13 -14 -21 -23 -16 -34 -10 -26 13
7 15 28 20 40 8z m97 -108 c0 -16 -9 -19 -34 -9 -25 9 -19 24 9 24 16 0 25 -6
25 -15z m1155 -29 c48 -15 138 -66 131 -74 -2 -2 -18 4 -35 12 -35 18 -45 20
-36 6 3 -5 0 -7 -9 -4 -9 3 -12 12 -8 22 5 15 4 15 -11 3 -15 -12 -17 -12 -11
3 5 12 1 16 -17 15 -13 -1 -37 3 -52 10 -16 6 -63 11 -105 11 -56 0 -73 3 -62
11 20 14 153 5 215 -15z m-45 -32 c0 4 5 4 11 0 8 -5 6 -10 -5 -16 -9 -5 -16
-15 -16 -22 0 -19 27 -28 34 -11 3 8 12 12 20 9 14 -5 14 -8 1 -20 -21 -22
-80 -9 -82 17 -1 11 5 23 13 26 13 5 12 9 -3 27 l-18 21 23 -19 c12 -11 22
-16 22 -12z m-1050 2 c0 -11 -19 -15 -25 -6 -3 5 1 10 9 10 9 0 16 -2 16 -4z
m900 -16 c0 -5 -2 -10 -4 -10 -3 0 -8 5 -11 10 -3 6 -1 10 4 10 6 0 11 -4 11
-10z m80 -4 c0 -8 6 -16 13 -19 8 -3 6 -7 -7 -12 -13 -6 -21 -3 -28 8 -5 10
-16 17 -24 17 -8 0 -12 5 -9 10 10 16 55 12 55 -4z m-980 -41 c7 -8 19 -15 26
-15 16 0 19 -26 5 -35 -6 -3 -15 4 -21 15 -6 11 -19 20 -30 20 -13 0 -18 5
-14 15 4 8 10 15 14 15 4 0 13 -7 20 -15z m845 -5 c-3 -5 -12 -10 -18 -10 -7
0 -6 4 3 10 19 12 23 12 15 0z m385 -4 c0 -3 -4 -8 -10 -11 -5 -3 -10 -1 -10
4 0 6 5 11 10 11 6 0 10 -2 10 -4z m-99 -23 c13 -17 13 -17 -6 -3 -11 8 -22
16 -24 17 -2 2 0 3 6 3 6 0 17 -8 24 -17z m-371 -89 c0 -31 -2 -35 -15 -24
-18 15 -19 32 -3 48 17 17 18 16 18 -24z m447 -33 c18 -23 38 -60 44 -81 11
-37 10 -41 -12 -59 -27 -22 -97 -56 -103 -50 -4 3 -10 229 -7 253 2 15 45 -20
78 -63z m-1179 47 c20 -20 14 -38 -13 -38 -24 0 -51 31 -38 44 10 10 38 7 51
-6z m202 -54 c0 -8 -4 -12 -10 -9 -5 3 -10 10 -10 16 0 5 5 9 10 9 6 0 10 -7
10 -16z m-90 -14 c0 -5 -5 -10 -11 -10 -5 0 -7 5 -4 10 3 6 8 10 11 10 2 0 4
-4 4 -10z m205 1 c3 -5 1 -12 -5 -16 -5 -3 -10 1 -10 9 0 18 6 21 15 7z m-305
-42 c0 -24 -27 -31 -45 -13 -20 20 -14 29 19 29 17 0 26 -5 26 -16z m343 -36
c-7 -2 -19 -2 -25 0 -7 3 -2 5 12 5 14 0 19 -2 13 -5z m-1528 -63 c3 -5 1 -10
-4 -10 -6 0 -11 5 -11 10 0 6 2 10 4 10 3 0 8 -4 11 -10z m-205 -70 c0 -5 -7
-10 -16 -10 -8 0 -12 5 -9 10 3 6 10 10 16 10 5 0 9 -4 9 -10z m116 0 c8 0 14
-4 14 -8 0 -4 -12 -8 -27 -7 -20 0 -28 -6 -33 -25 -8 -32 -44 -35 -48 -3 -3
24 42 56 66 48 8 -3 20 -5 28 -5z m158 -37 c10 -25 -6 -34 -44 -23 -23 6 -38
6 -46 -1 -14 -11 -34 -4 -34 12 0 5 13 9 29 9 17 0 33 5 36 10 10 16 52 11 59
-7z m-164 -33 c0 -5 -4 -10 -10 -10 -5 0 -10 5 -10 10 0 6 5 10 10 10 6 0 10
-4 10 -10z m-86 -16 c9 -3 13 -10 10 -15 -3 -5 -10 -7 -15 -4 -18 12 -28 -5
-19 -30 8 -21 6 -25 -8 -25 -22 1 -56 46 -48 66 5 14 51 19 80 8z m2963 -80
c-3 -3 -12 -4 -19 -1 -8 3 -5 6 6 6 11 1 17 -2 13 -5z m78 -24 c19 -20 15 -24
-20 -20 -22 2 -45 18 -45 31 0 17 47 9 65 -11z m-3930 -10 c15 -6 6 -9 -33 -9
-33 -1 -51 3 -47 9 7 12 52 12 80 0z m966 0 c5 0 9 -11 9 -25 0 -20 -5 -25
-24 -25 -19 0 -25 -6 -28 -27 -2 -21 -9 -29 -28 -31 -32 -5 -50 -20 -44 -37 3
-8 -4 -20 -15 -27 -12 -7 -21 -18 -21 -24 0 -30 -68 -20 -81 12 -6 16 -8 15
-8 -8 -1 -17 -9 -32 -21 -38 -17 -9 -22 -7 -30 15 -5 14 -14 25 -19 25 -6 0
-8 7 -4 16 4 11 15 15 34 12 25 -4 29 -1 29 18 0 12 -7 25 -16 28 -25 10 -6
26 31 26 19 0 37 5 40 10 5 7 11 8 19 1 8 -7 11 0 10 25 -2 37 19 47 40 20 8
-11 20 -13 46 -7 19 5 31 9 27 10 -4 1 -3 10 3 22 7 12 17 18 27 15 8 -3 19
-6 24 -6z m2834 1 c16 -7 13 -9 -18 -15 -41 -8 -107 1 -107 15 0 11 97 11 125
0z m-2505 -61 c0 -5 -9 -10 -20 -10 -11 0 -20 5 -20 10 0 6 9 10 20 10 11 0
20 -4 20 -10z m2548 3 c-10 -2 -28 -2 -40 0 -13 2 -5 4 17 4 22 1 32 -1 23 -4z
m135 0 c-7 -2 -19 -2 -25 0 -7 3 -2 5 12 5 14 0 19 -2 13 -5z m-2848 -123
c-28 -12 -73 -12 -80 0 -4 6 14 10 47 9 39 0 48 -3 33 -9z m55 -12 c0 -6 -6
-5 -15 2 -8 7 -15 14 -15 16 0 2 7 1 15 -2 8 -4 15 -11 15 -16z m-740 -34 c0
-15 -9 -17 -34 -8 -21 8 -20 22 2 27 22 5 32 -1 32 -19z m620 10 c0 -3 -13
-24 -28 -47 -41 -60 -62 -110 -62 -146 0 -32 25 -93 50 -124 25 -30 101 -71
144 -77 23 -3 39 -9 37 -15 -11 -30 -215 -51 -232 -24 -4 7 -16 9 -27 7 -13
-4 -23 0 -26 9 -4 10 -14 13 -27 10 -15 -4 -23 1 -30 21 -5 14 -19 32 -31 40
-46 33 -61 125 -31 190 18 40 88 112 108 112 7 0 18 7 25 15 7 8 27 15 44 16
17 0 40 4 51 9 24 11 35 12 35 4z m-448 -36 c-7 -7 -12 -8 -12 -2 0 14 12 26
19 19 2 -3 -1 -11 -7 -17z m1668 7 c0 -8 -4 -15 -9 -15 -5 0 -11 -8 -15 -17
-3 -10 -14 -31 -25 -48 -21 -32 -29 -145 -11 -145 6 0 10 -9 10 -19 0 -39 121
-121 179 -121 16 0 32 -4 35 -9 15 -24 -218 -30 -250 -6 -10 8 -27 15 -36 15
-10 0 -18 5 -18 10 0 6 -6 10 -12 10 -19 0 -73 51 -90 84 -13 25 -13 33 1 75
9 25 19 48 22 51 4 3 9 15 13 28 20 62 206 159 206 107z m-1850 -45 c0 -5 -5
-10 -11 -10 -5 0 -7 5 -4 10 3 6 8 10 11 10 2 0 4 -4 4 -10z m24 -36 c11 -28
6 -54 -8 -54 -21 0 -28 15 -20 45 7 28 19 33 28 9z m254 -16 c2 -12 -2 -15
-17 -11 -13 3 -21 1 -21 -7 0 -10 -3 -10 -14 -1 -8 7 -12 20 -9 30 4 15 10 17
31 12 15 -4 28 -15 30 -23z m378 7 c4 -8 16 -15 28 -15 13 0 26 -3 29 -7 13
-12 -26 -43 -55 -43 -15 0 -28 -5 -28 -11 0 -7 -9 0 -20 14 -24 31 -25 35 -3
59 20 22 42 23 49 3z m1240 0 c4 -8 17 -15 29 -15 54 0 35 -39 -23 -50 -33 -6
-45 -4 -57 10 -19 21 -19 29 2 52 20 22 42 23 49 3z m-636 -81 c0 -24 -1 -24
-17 -9 -14 14 -14 18 -2 26 19 12 19 12 19 -17z m-1183 -19 c28 -12 33 -18 24
-29 -6 -7 -9 -21 -5 -30 5 -12 2 -15 -10 -10 -9 3 -15 13 -14 21 2 11 -7 16
-31 18 -18 2 -41 11 -50 20 -15 17 -15 17 2 12 9 -4 17 -2 17 4 0 6 5 7 10 4
6 -3 10 2 11 12 0 11 3 13 6 5 3 -7 21 -19 40 -27z m93 10 c7 -14 19 -25 27
-25 17 0 17 -24 0 -39 -17 -14 -27 -4 -27 26 0 13 -6 23 -14 23 -7 0 -16 9
-19 20 -7 29 17 25 33 -5z m-205 -16 c8 -23 -9 -41 -30 -33 -16 6 -6 54 10 54
8 0 17 -10 20 -21z m893 -64 c-15 -34 -56 -55 -108 -55 -34 0 -41 3 -38 17 2
10 16 20 34 24 32 6 96 45 103 63 2 5 8 2 12 -7 6 -10 5 -26 -3 -42z m1231
-11 c-25 -47 -139 -66 -139 -23 0 14 7 19 25 19 26 0 64 20 100 53 19 18 20
18 23 -4 2 -12 -2 -32 -9 -45z m-805 -19 c3 -9 -1 -18 -10 -22 -19 -7 -28 2
-21 22 8 19 23 19 31 0z m-1017 -42 c13 -29 14 -38 4 -41 -8 -3 -22 -13 -32
-23 -11 -11 -25 -19 -33 -19 -21 0 -30 -20 -16 -33 10 -9 14 -9 17 1 6 14 33
16 33 2 0 -5 7 -10 16 -10 8 0 13 -4 9 -9 -3 -5 -1 -12 5 -16 5 -3 10 -17 10
-31 0 -19 5 -24 26 -24 14 0 23 4 20 9 -3 5 1 12 9 15 9 3 18 -1 21 -9 3 -7
11 -12 19 -9 7 3 19 -1 26 -8 8 -7 27 -14 43 -15 36 -3 59 -32 43 -52 -10 -12
-9 -14 6 -8 12 5 17 1 17 -12 0 -10 11 -24 25 -31 28 -15 32 -45 10 -74 -8
-10 -12 -22 -10 -27 6 -9 -15 -6 -32 4 -6 4 -10 18 -8 32 2 20 0 23 -11 14 -8
-6 -11 -15 -8 -20 2 -5 -2 -22 -11 -39 -8 -16 -14 -33 -13 -37 2 -5 -9 -9 -23
-11 -18 -2 -36 6 -54 22 -39 36 -58 35 -43 -1 7 -16 16 -34 21 -40 7 -9 4 -13
-7 -13 -15 0 -18 4 -20 33 -2 23 -21 26 -42 6 -21 -19 -21 -19 -45 2 -25 22
-26 23 -28 64 -1 17 -5 23 -15 19 -11 -4 -13 0 -9 15 6 23 -6 28 -25 9 -8 -8
-6 -17 8 -36 26 -33 26 -62 0 -62 -11 0 -20 7 -20 15 0 8 -4 15 -9 15 -5 0
-17 3 -25 6 -12 5 -15 2 -9 -12 5 -14 3 -16 -11 -11 -16 6 -24 2 -61 -30 -20
-19 -45 -16 -45 6 0 10 -11 35 -25 55 -26 38 -32 66 -15 66 6 0 9 14 8 31 -4
42 14 47 45 13 l25 -26 7 22 c6 18 2 27 -16 40 -12 10 -23 28 -23 42 -1 21 2
23 34 20 19 -3 41 -9 49 -16 11 -9 13 -4 9 27 -3 31 -1 37 11 32 9 -4 20 -7
26 -8 5 -1 15 -9 22 -17 13 -16 13 -16 17 17 3 25 -19 37 -50 28 -12 -4 -10 0
6 9 l25 16 -28 -6 c-25 -6 -27 -5 -18 17 5 13 10 29 11 34 1 6 6 9 12 7 5 -1
8 3 5 10 -2 7 -15 12 -28 10 -13 -1 -19 1 -13 5 6 5 13 14 15 20 3 10 11 9 33
-2 15 -8 29 -15 30 -15 1 0 3 12 4 26 2 31 27 53 59 54 16 0 27 -11 40 -37z
m-237 7 c12 -8 11 -10 -7 -10 -13 0 -23 5 -23 10 0 13 11 13 30 0z m30 -104
c0 -3 -7 -6 -15 -6 -9 0 -15 9 -15 21 0 18 2 19 15 5 8 -8 15 -17 15 -20z
m-51 -89 c8 -11 5 -13 -19 -9 -16 2 -27 8 -24 13 8 13 30 11 43 -4z m1281
-257 c0 -5 -4 -10 -10 -10 -5 0 -10 5 -10 10 0 6 5 10 10 10 6 0 10 -4 10 -10z
m-13 -33 c-6 -20 -26 -19 -24 1 1 12 6 18 14 15 8 -3 12 -10 10 -16z m-810
-33 c-3 -3 -12 -4 -19 -1 -8 3 -5 6 6 6 11 1 17 -2 13 -5z m957 -929 c3 -8 1
-15 -4 -15 -6 0 -10 7 -10 15 0 8 2 15 4 15 2 0 6 -7 10 -15z m2316 -10 c0 -8
-4 -15 -10 -15 -5 0 -7 7 -4 15 4 8 8 15 10 15 2 0 4 -7 4 -15z m-540 -65 c0
-5 -4 -10 -10 -10 -5 0 -10 5 -10 10 0 6 5 10 10 10 6 0 10 -4 10 -10z m627
-262 c-3 -8 -6 -5 -6 6 -1 11 2 17 5 13 3 -3 4 -12 1 -19z m-607 -368 c0 -5
-6 -10 -14 -10 -8 0 -18 5 -21 10 -3 6 3 10 14 10 12 0 21 -4 21 -10z m17 -46
c-3 -3 -12 -4 -19 -1 -8 3 -5 6 6 6 11 1 17 -2 13 -5z m483 -174 c0 -5 -5 -10
-11 -10 -5 0 -7 5 -4 10 3 6 8 10 11 10 2 0 4 -4 4 -10z m-3120 -210 c0 -5 -6
-10 -12 -10 -9 0 -8 -4 2 -10 10 -6 11 -10 3 -10 -7 0 -13 -8 -13 -17 1 -25
-44 -163 -52 -163 -6 0 -4 24 7 80 16 75 65 174 65 130z m1625 -159 c3 -2 5 3
5 12 0 13 10 17 43 17 38 0 144 11 252 26 84 12 140 15 457 21 l327 6 6 -24
c3 -13 4 -157 3 -319 l-3 -295 -73 -7 c-40 -4 -100 -18 -135 -32 -61 -23 -71
-24 -417 -29 -195 -2 -381 -2 -412 1 l-58 4 0 241 c0 176 -4 268 -16 339 -10
58 -13 108 -9 125 7 25 9 23 17 -26 5 -30 11 -57 13 -60z m-1744 52 c-9 -15
-10 -12 -10 17 0 29 1 32 10 18 7 -12 7 -24 0 -35z m1378 -91 c19 -20 42 -33
67 -37 60 -9 115 -28 137 -45 16 -13 21 -35 27 -132 5 -64 9 -172 9 -242 l2
-126 -263 -2 c-240 -1 -358 -1 -414 1 -15 1 -20 7 -20 24 1 16 -5 23 -21 25
l-23 3 0 275 c0 215 3 276 13 280 24 9 302 19 380 13 71 -5 80 -8 106 -37z
m-611 -259 l2 -272 -22 -3 c-15 -2 -24 -11 -26 -25 l-3 -23 -346 0 -345 0 5
168 c4 153 19 271 46 363 10 32 14 35 41 31 22 -3 32 0 37 14 5 13 10 -3 13
-46 l5 -65 35 0 35 0 3 57 3 57 57 6 c31 4 62 8 67 10 6 2 96 3 200 2 l190 -2
3 -272z m-721 215 c-3 -8 -6 -5 -6 6 -1 11 2 17 5 13 3 -3 4 -12 1 -19z m803
-896 c0 -28 -3 -33 -10 -22 -13 20 -13 73 0 65 6 -3 10 -23 10 -43z m8 -1774
c18 -18 15 -133 -4 -152 -19 -20 -23 -20 -46 1 -14 12 -18 31 -18 78 0 62 11
85 40 85 9 0 21 -5 28 -12z"/>
<path d="M5077 7924 c-8 -8 1 -24 14 -24 5 0 9 7 9 15 0 15 -12 20 -23 9z"/>
<path d="M4711 7788 c-1 -9 -4 -23 -7 -32 -4 -11 -1 -16 10 -16 17 0 19 14 6
45 -7 16 -9 17 -9 3z"/>
<path d="M5260 7790 c0 -5 7 -10 15 -10 8 0 15 5 15 10 0 6 -7 10 -15 10 -8 0
-15 -4 -15 -10z"/>
<path d="M4640 7771 c0 -6 7 -11 15 -11 8 0 14 -3 13 -7 -4 -10 11 -16 15 -7
1 4 -8 13 -20 22 -15 9 -23 10 -23 3z"/>
<path d="M5320 7650 c0 -5 5 -10 10 -10 6 0 10 5 10 10 0 6 -4 10 -10 10 -5 0
-10 -4 -10 -10z"/>
<path d="M4438 7603 c7 -3 16 -2 19 1 4 3 -2 6 -13 5 -11 0 -14 -3 -6 -6z"/>
<path d="M5335 7560 c-4 -6 6 -10 22 -10 22 0 25 2 13 10 -19 12 -27 12 -35 0z"/>
<path d="M4438 7429 c-29 -21 -37 -49 -15 -49 22 0 57 31 57 51 0 24 -8 24
-42 -2z"/>
<path d="M4498 7413 c7 -3 16 -2 19 1 4 3 -2 6 -13 5 -11 0 -14 -3 -6 -6z"/>
<path d="M5380 7402 c0 -5 9 -12 21 -15 13 -3 19 -1 16 6 -5 15 -37 22 -37 9z"/>
<path d="M5180 7300 c0 -5 11 -10 25 -10 14 0 25 5 25 10 0 6 -11 10 -25 10
-14 0 -25 -4 -25 -10z"/>
<path d="M3915 7280 c-3 -5 1 -10 10 -10 9 0 13 5 10 10 -3 6 -8 10 -10 10 -2
0 -7 -4 -10 -10z"/>
<path d="M3862 7044 c-17 -18 -12 -36 6 -25 8 5 12 15 10 24 -3 13 -5 13 -16
1z"/>
<path d="M4052 6283 c-19 -7 -4 -23 23 -23 29 0 41 16 19 24 -18 7 -23 7 -42
-1z"/>
<path d="M3890 6252 c0 -4 9 -13 20 -20 19 -12 20 -11 8 8 -13 20 -28 27 -28
12z"/>
<path d="M3780 6230 c-13 -8 -12 -10 3 -10 9 0 17 -7 17 -15 0 -8 9 -15 20
-15 11 0 20 -4 20 -10 0 -5 7 -10 15 -10 26 0 16 21 -15 31 -16 6 -30 17 -30
25 0 16 -9 18 -30 4z"/>
<path d="M4170 6161 c0 -6 9 -9 19 -8 11 0 17 5 15 9 -7 11 -34 10 -34 -1z"/>
<path d="M7563 4625 c0 -27 2 -38 4 -22 2 15 2 37 0 50 -2 12 -4 0 -4 -28z"/>
<path d="M7500 4575 c0 -8 7 -15 15 -15 9 0 12 6 9 15 -4 8 -10 15 -15 15 -5
0 -9 -7 -9 -15z"/>
<path d="M7500 4420 c0 -5 5 -10 10 -10 6 0 10 5 10 10 0 6 -4 10 -10 10 -5 0
-10 -4 -10 -10z"/>
<path d="M7572 4390 c0 -19 2 -27 5 -17 2 9 2 25 0 35 -3 9 -5 1 -5 -18z"/>
<path d="M7387 4254 c4 -11 0 -15 -13 -13 -24 4 -44 -8 -44 -27 0 -8 4 -13 9
-9 5 3 12 1 16 -5 8 -13 75 -13 75 -1 0 22 -20 59 -34 64 -10 4 -13 1 -9 -9z"/>
<path d="M7460 4225 c14 -8 33 -14 43 -15 19 0 24 19 5 21 -7 1 -26 3 -43 5
l-30 3 25 -14z"/>
<path d="M7244 4189 c-8 -14 18 -31 30 -19 9 9 0 30 -14 30 -5 0 -12 -5 -16
-11z"/>
<path d="M2868 4163 c12 -2 30 -2 40 0 9 3 -1 5 -23 4 -22 0 -30 -2 -17 -4z"/>
<path d="M2750 4140 c-9 -6 -10 -10 -3 -10 6 0 15 5 18 10 8 12 4 12 -15 0z"/>
<path d="M2689 4097 c-31 -26 -64 -75 -56 -83 3 -3 13 7 23 23 10 15 29 40 43
56 30 33 26 35 -10 4z"/>
<path d="M3066 4085 c17 -22 38 -53 47 -70 9 -16 16 -25 17 -19 0 15 -53 96
-76 114 -10 8 -5 -3 12 -25z"/>
<path d="M2930 3849 c0 -5 5 -7 12 -3 8 5 9 2 5 -9 -3 -10 -2 -17 2 -17 8 0
21 23 21 36 0 2 -9 4 -20 4 -11 0 -20 -5 -20 -11z"/>
<path d="M2550 3752 c0 -4 9 -23 19 -43 14 -25 16 -40 9 -50 -8 -12 -9 -11 -5
2 3 9 2 22 -3 28 -5 9 -7 4 -7 -13 0 -20 10 -32 48 -56 53 -32 64 -36 53 -19
-5 8 -1 8 14 0 12 -6 24 -16 27 -21 4 -6 11 -8 16 -5 5 4 9 2 9 -3 0 -9 30
-18 85 -28 47 -8 124 -3 174 10 57 16 86 33 36 22 -111 -25 -131 -27 -189 -17
-108 19 -203 80 -255 164 -22 36 -31 45 -31 29z m100 -134 c0 -13 -5 -9 -31
19 l-24 26 27 -19 c15 -10 28 -22 28 -26z"/>
</g>
</svg>
